<svg xmlns="http://www.w3.org/2000/svg" viewBox="0 0 1200 800" role="img" aria-labelledby="title desc">
  <title id="title">Zachte lotusbloem in beige, wit en goud</title>
  <desc id="desc">Een rustige, rechtenvrije illustratie van een lotusbloem in warme beige, witte en gouden tinten.</desc>
  <defs>
    <linearGradient id="bg" x1="0" y1="0" x2="1" y2="1">
      <stop offset="0" stop-color="#fbf6ec"/>
      <stop offset="0.55" stop-color="#f1e3cf"/>
      <stop offset="1" stop-color="#d9bd87"/>
    </linearGradient>
    <radialGradient id="glow" cx="50%" cy="45%" r="48%">
      <stop offset="0" stop-color="#fff8df" stop-opacity="0.95"/>
      <stop offset="0.45" stop-color="#f8e8bd" stop-opacity="0.48"/>
      <stop offset="1" stop-color="#ffffff" stop-opacity="0"/>
    </radialGradient>
    <linearGradient id="petal" x1="0" y1="0" x2="0" y2="1">
      <stop offset="0" stop-color="#ffffff"/>
      <stop offset="0.62" stop-color="#f4dfbd"/>
      <stop offset="1" stop-color="#d6a451"/>
    </linearGradient>
    <filter id="soft" x="-20%" y="-20%" width="140%" height="140%">
      <feGaussianBlur stdDeviation="0.6"/>
    </filter>
  </defs>
  <rect width="1200" height="800" fill="url(#bg)"/>
  <circle cx="600" cy="355" r="365" fill="url(#glow)"/>
  <g opacity="0.38" fill="#fffaf0">
    <circle cx="190" cy="155" r="58"/>
    <circle cx="1000" cy="170" r="82"/>
    <circle cx="1040" cy="628" r="102"/>
    <circle cx="220" cy="640" r="86"/>
  </g>
  <g transform="translate(600 485)" filter="url(#soft)">
    <g fill="#ead1a3" opacity="0.72" stroke="#c99a47" stroke-opacity="0.28" stroke-width="3">
      <path d="M0 28 C-190 0 -298 -118 -346 -262 C-196 -232 -84 -122 0 28Z"/>
      <path d="M0 28 C-142 -62 -190 -218 -160 -356 C-52 -272 -6 -120 0 28Z"/>
      <path d="M0 28 C-54 -98 -40 -252 0 -390 C40 -252 54 -98 0 28Z"/>
      <path d="M0 28 C142 -62 190 -218 160 -356 C52 -272 6 -120 0 28Z"/>
      <path d="M0 28 C190 0 298 -118 346 -262 C196 -232 84 -122 0 28Z"/>
    </g>
    <g fill="url(#petal)" stroke="#c99a47" stroke-opacity="0.38" stroke-width="3">
      <path d="M0 20 C-170 -22 -232 -152 -260 -292 C-126 -240 -38 -110 0 20Z"/>
      <path d="M0 20 C-110 -86 -114 -226 -76 -340 C2 -238 18 -92 0 20Z"/>
      <path d="M0 20 C-32 -112 -18 -258 0 -378 C18 -258 32 -112 0 20Z"/>
      <path d="M0 20 C110 -86 114 -226 76 -340 C-2 -238 -18 -92 0 20Z"/>
      <path d="M0 20 C170 -22 232 -152 260 -292 C126 -240 38 -110 0 20Z"/>
    </g>
    <g fill="#fffdf7" stroke="#d0a052" stroke-opacity="0.48" stroke-width="3">
      <path d="M0 36 C-122 2 -176 -92 -204 -220 C-90 -188 -20 -84 0 36Z"/>
      <path d="M0 36 C-66 -52 -60 -168 0 -275 C60 -168 66 -52 0 36Z"/>
      <path d="M0 36 C122 2 176 -92 204 -220 C90 -188 20 -84 0 36Z"/>
    </g>
    <ellipse cx="0" cy="36" rx="92" ry="50" fill="#d6a451" fill-opacity="0.54" stroke="#b98738" stroke-opacity="0.35" stroke-width="3"/>
  </g>
</svg>
